name C:/MyDriveSym/Projects/mobilecap/Data\Session20210823_0001\mocap\ForceDataProcessed\DJAsym2_forces.mot
datacolumns 28
datarows 11
range 1.73950000 1.74450000
endheader 
time	R_ground_force_vx	R_ground_force_vy	R_ground_force_vz	R_ground_force_px	R_ground_force_py	R_ground_force_pz	R_ground_torque_x	R_ground_torque_y	R_ground_torque_z	L_ground_force_vx	L_ground_force_vy	L_ground_force_vz	L_ground_force_px	L_ground_force_py	L_ground_force_pz	L_ground_torque_x	L_ground_torque_y	L_ground_torque_z	3_ground_force_vx	3_ground_force_vy	3_ground_force_vz	3_ground_force_px	3_ground_force_py	3_ground_force_pz	3_ground_torque_x	3_ground_torque_y	3_ground_torque_z	
          1.73950000	        -70.94091300	        547.36817300	        -58.17576000	         -0.09971100	          0.00600000	         -0.43247300	          0.00000000	         -5.02066900	          0.00000000	        -66.63021000	        548.79203100	         39.48565400	         -0.09643300	          0.00600000	         -0.76274000	          0.00000000	          2.12208400	          0.00000000	          0.00000000	          0.00000000	          0.00000000	          0.00000000	          0.00000000	          0.00000000	          0.00000000	          0.00000000	          0.00000000	
          1.74000000	        -70.68676900	        544.95536300	        -57.86212500	         -0.09961100	          0.00600000	         -0.43245000	          0.00000000	         -4.96527500	          0.00000000	        -66.64424000	        546.78027600	         39.28719900	         -0.09632000	          0.00600000	         -0.76277300	          0.00000000	          2.10045000	          0.00000000	          0.00000000	          0.00000000	          0.00000000	          0.00000000	          0.00000000	          0.00000000	          0.00000000	          0.00000000	          0.00000000	
          1.74050000	        -70.41102700	        542.49239600	        -57.54274500	         -0.09951200	          0.00600000	         -0.43242600	          0.00000000	         -4.90930600	          0.00000000	        -66.63952000	        544.72033000	         39.08620800	         -0.09620700	          0.00600000	         -0.76280500	          0.00000000	          2.07842500	          0.00000000	          0.00000000	          0.00000000	          0.00000000	          0.00000000	          0.00000000	          0.00000000	          0.00000000	          0.00000000	          0.00000000	
          1.74100000	        -70.11359300	        539.97937600	        -57.21757200	         -0.09941200	          0.00600000	         -0.43240200	          0.00000000	         -4.85280100	          0.00000000	        -66.61546600	        542.61161900	         38.88249600	         -0.09609300	          0.00600000	         -0.76283800	          0.00000000	          2.05601800	          0.00000000	          0.00000000	          0.00000000	          0.00000000	          0.00000000	          0.00000000	          0.00000000	          0.00000000	          0.00000000	          0.00000000	
          1.74150000	        -69.79436800	        537.41638500	        -56.88657200	         -0.09931200	          0.00600000	         -0.43237700	          0.00000000	         -4.79579700	          0.00000000	        -66.57150600	        540.45354800	         38.67587600	         -0.09597900	          0.00600000	         -0.76287000	          0.00000000	          2.03324000	          0.00000000	          0.00000000	          0.00000000	          0.00000000	          0.00000000	          0.00000000	          0.00000000	          0.00000000	          0.00000000	          0.00000000	
          1.74200000	        -69.45323400	        534.80351800	        -56.54973500	         -0.09921200	          0.00600000	         -0.43235300	          0.00000000	         -4.73832900	          0.00000000	        -66.50709500	        538.24550300	         38.46616900	         -0.09586500	          0.00600000	         -0.76290200	          0.00000000	          2.01010300	          0.00000000	          0.00000000	          0.00000000	          0.00000000	          0.00000000	          0.00000000	          0.00000000	          0.00000000	          0.00000000	          0.00000000	
          1.74250000	        -69.09004000	        532.14091700	        -56.20706900	         -0.09911200	          0.00600000	         -0.43232800	          0.00000000	         -4.68043300	          0.00000000	        -66.42170300	        535.98684100	         38.25320800	         -0.09575100	          0.00600000	         -0.76293500	          0.00000000	          1.98663000	          0.00000000	          0.00000000	          0.00000000	          0.00000000	          0.00000000	          0.00000000	          0.00000000	          0.00000000	          0.00000000	          0.00000000	
          1.74300000	        -68.70461000	        529.42878200	        -55.85860100	         -0.09901100	          0.00600000	         -0.43230400	          0.00000000	         -4.62214500	          0.00000000	        -66.31481000	        533.67690000	         38.03684500	         -0.09563600	          0.00600000	         -0.76296700	          0.00000000	          1.96284700	          0.00000000	          0.00000000	          0.00000000	          0.00000000	          0.00000000	          0.00000000	          0.00000000	          0.00000000	          0.00000000	          0.00000000	
          1.74350000	        -68.29674800	        526.66736700	        -55.50436700	         -0.09891100	          0.00600000	         -0.43227900	          0.00000000	         -4.56349100	          0.00000000	        -66.18590100	        531.31502000	         37.81693900	         -0.09552200	          0.00600000	         -0.76300000	          0.00000000	          1.93877800	          0.00000000	          0.00000000	          0.00000000	          0.00000000	          0.00000000	          0.00000000	          0.00000000	          0.00000000	          0.00000000	          0.00000000	
          1.74400000	        -67.86624900	        523.85695500	        -55.14440600	         -0.09881000	          0.00600000	         -0.43225400	          0.00000000	         -4.50449700	          0.00000000	        -66.03446300	        528.90055500	         37.59336400	         -0.09540800	          0.00600000	         -0.76303200	          0.00000000	          1.91444600	          0.00000000	          0.00000000	          0.00000000	          0.00000000	          0.00000000	          0.00000000	          0.00000000	          0.00000000	          0.00000000	          0.00000000	
          1.74450000	        -67.41290700	        520.99782400	        -54.77875400	         -0.09870900	          0.00600000	         -0.43222900	          0.00000000	         -4.44518100	          0.00000000	        -65.85998900	        526.43289200	         37.36600400	         -0.09529300	          0.00600000	         -0.76306500	          0.00000000	          1.88987400	          0.00000000	          0.00000000	          0.00000000	          0.00000000	          0.00000000	          0.00000000	          0.00000000	          0.00000000	          0.00000000	          0.00000000	
